<svg version="1.1" id="Layer_1" xmlns="http://www.w3.org/2000/svg" xmlns:xlink="http://www.w3.org/1999/xlink" x="0px" y="0px"
	 width="100%" viewBox="0 0 1024 1024" enable-background="new 0 0 1024 1024" xml:space="preserve">
<path fill="#020202" opacity="1.000000" stroke="none" 
	d="
M699.000000,1025.000000 
	C466.000000,1025.000000 233.500000,1025.000000 1.000000,1025.000000 
	C1.000000,683.666687 1.000000,342.333344 1.000000,1.000000 
	C342.333344,1.000000 683.666687,1.000000 1025.000000,1.000000 
	C1025.000000,342.333344 1025.000000,683.666687 1025.000000,1025.000000 
	C916.500000,1025.000000 808.000000,1025.000000 699.000000,1025.000000 
M293.942078,501.146423 
	C324.822357,496.668671 355.747437,495.392883 386.801636,499.467957 
	C386.884369,500.497406 386.983368,501.153839 386.983276,501.810242 
	C386.970306,608.786133 387.097168,715.762390 386.794525,822.737488 
	C386.740295,841.902649 383.232758,860.716614 375.131226,878.924927 
	C375.180511,879.179260 375.229767,879.433594 375.279022,879.687927 
	C375.573792,879.514832 375.868561,879.341797 376.793701,878.912048 
	C401.750824,860.897278 426.841156,843.063660 451.635406,824.827454 
	C494.132416,793.570862 536.603088,762.273987 578.782593,730.591736 
	C610.991089,706.398987 643.679993,682.688599 670.992065,652.688110 
	C711.043823,608.693970 722.764038,557.346924 708.056824,500.391510 
	C699.289673,466.439606 675.985779,442.070587 648.156738,422.366974 
	C630.799805,410.077820 612.055176,399.748535 594.480225,388.878021 
	C603.087646,382.706665 612.690979,376.150146 621.939331,369.126251 
	C646.058716,350.808167 665.103516,328.754059 673.250000,298.704254 
	C678.093018,280.839752 677.700439,262.914948 675.225769,244.780609 
	C669.638977,203.841232 645.900146,176.809525 608.844666,161.980484 
	C584.785828,152.352478 558.787292,148.365662 532.769165,148.172226 
	C467.773865,147.688995 402.772675,147.999710 337.773834,148.009445 
	C336.608154,148.009628 335.442535,148.229401 335.608002,148.212753 
	C346.284912,157.899475 357.620453,167.659592 368.325165,178.068405 
	C376.296539,185.819397 382.241089,195.214767 384.060608,206.415527 
	C385.787292,217.045074 387.311829,227.779633 387.804779,238.519440 
	C388.445984,252.490219 387.989319,266.511749 387.990295,280.511444 
	C387.993896,332.343872 387.940704,384.176422 388.093475,436.008392 
	C388.104889,439.891235 386.924408,442.000000 383.602905,443.838593 
	C377.357697,447.295654 371.344910,451.179474 365.291687,454.975464 
	C341.074799,470.161835 316.879486,485.382660 292.226807,500.775604 
	C291.998871,501.001587 291.770935,501.227570 291.542969,501.453522 
	C292.056213,501.335144 292.569489,501.216766 293.942078,501.146423 
z"/>
<path fill="#F80005" opacity="1.000000" stroke="none" 
	d="
M375.425476,878.476074 
	C383.232758,860.716614 386.740295,841.902649 386.794525,822.737488 
	C387.097168,715.762390 386.970306,608.786133 386.983276,501.810242 
	C386.983368,501.153839 386.884369,500.497406 386.801636,499.467957 
	C355.747437,495.392883 324.822357,496.668671 293.410706,500.995544 
	C292.879364,500.844666 292.676178,500.590729 292.676178,500.590729 
	C316.879486,485.382660 341.074799,470.161835 365.291687,454.975464 
	C371.344910,451.179474 377.357697,447.295654 383.602905,443.838593 
	C386.924408,442.000000 388.104889,439.891235 388.093475,436.008392 
	C387.940704,384.176422 387.993896,332.343872 387.990295,280.511444 
	C387.989319,266.511749 388.445984,252.490219 387.804779,238.519440 
	C387.311829,227.779633 385.787292,217.045074 384.060608,206.415527 
	C382.241089,195.214767 376.296539,185.819397 368.325165,178.068405 
	C357.620453,167.659592 346.284912,157.899475 335.608002,148.212753 
	C335.442535,148.229401 336.608154,148.009628 337.773834,148.009445 
	C402.772675,147.999710 467.773865,147.688995 532.769165,148.172226 
	C558.787292,148.365662 584.785828,152.352478 608.844666,161.980484 
	C645.900146,176.809525 669.638977,203.841232 675.225769,244.780609 
	C677.700439,262.914948 678.093018,280.839752 673.250000,298.704254 
	C665.103516,328.754059 646.058716,350.808167 621.939331,369.126251 
	C612.690979,376.150146 603.087646,382.706665 594.480225,388.878021 
	C612.055176,399.748535 630.799805,410.077820 648.156738,422.366974 
	C675.985779,442.070587 699.289673,466.439606 708.056824,500.391510 
	C722.764038,557.346924 711.043823,608.693970 670.992065,652.688110 
	C643.679993,682.688599 610.991089,706.398987 578.782593,730.591736 
	C536.603088,762.273987 494.132416,793.570862 451.635406,824.827454 
	C426.841156,843.063660 401.750824,860.897278 376.296814,878.864258 
	C375.675110,878.703064 375.550293,878.589539 375.425476,878.476074 
M615.107300,580.584351 
	C620.948181,561.121582 621.667603,541.264526 618.647644,521.358276 
	C614.418274,493.480103 598.795166,472.671356 576.850708,455.868225 
	C563.356079,445.535187 548.054810,438.864685 532.627380,432.225616 
	C528.619019,430.500641 525.880066,430.991516 522.252930,432.998535 
	C506.562347,441.680725 490.702606,450.061462 474.804260,458.360046 
	C471.932953,459.858765 470.920288,461.503143 470.924805,464.802155 
	C471.034851,545.117554 471.009216,625.433167 471.024597,705.748779 
	C471.024872,707.124695 471.229797,708.500671 471.416351,710.846680 
	C506.294769,686.966003 542.705078,666.924438 574.266846,639.887634 
	C592.817688,623.996460 608.256042,605.650513 615.107300,580.584351 
M470.318817,294.499939 
	C470.318817,326.187805 470.318817,357.875671 470.318817,389.632172 
	C492.504944,377.135437 514.375488,365.225220 535.803406,352.565826 
	C545.772217,346.676331 555.399963,339.951355 564.273621,332.520020 
	C583.110962,316.744385 592.425659,296.720978 590.208984,271.535492 
	C587.517029,240.949860 562.615723,219.994064 535.868164,217.387192 
	C514.892395,215.342834 493.680389,215.719528 472.572540,215.044815 
	C471.964752,215.025375 471.348206,215.279449 470.322571,215.491348 
	C470.322571,241.598038 470.322571,267.548950 470.318817,294.499939 
z"/>
<path fill="#F80005" opacity="1.000000" stroke="none" 
	d="
M292.981049,500.971527 
	C292.569489,501.216766 292.056213,501.335144 291.542969,501.453552 
	C291.770935,501.227570 291.998871,501.001587 292.451477,500.683167 
	C292.676178,500.590729 292.879364,500.844666 292.981049,500.971527 
z"/>
<path fill="#F80005" opacity="1.000000" stroke="none" 
	d="
M375.981628,878.992615 
	C375.868561,879.341797 375.573792,879.514832 375.279022,879.687927 
	C375.229767,879.433594 375.180511,879.179260 375.278351,878.700500 
	C375.550293,878.589539 375.675110,878.703064 375.981628,878.992615 
z"/>
<path fill="#000000" opacity="1.000000" stroke="none" 
	d="
M615.041992,580.985901 
	C608.256042,605.650513 592.817688,623.996460 574.266846,639.887634 
	C542.705078,666.924438 506.294769,686.966003 471.416351,710.846680 
	C471.229797,708.500671 471.024872,707.124695 471.024597,705.748779 
	C471.009216,625.433167 471.034851,545.117554 470.924805,464.802155 
	C470.920288,461.503143 471.932953,459.858765 474.804260,458.360046 
	C490.702606,450.061462 506.562347,441.680725 522.252930,432.998535 
	C525.880066,430.991516 528.619019,430.500641 532.627380,432.225616 
	C548.054810,438.864685 563.356079,445.535187 576.850708,455.868225 
	C598.795166,472.671356 614.418274,493.480103 618.647644,521.358276 
	C621.667603,541.264526 620.948181,561.121582 615.041992,580.985901 
z"/>
<path fill="#020000" opacity="1.000000" stroke="none" 
	d="
M470.320679,293.999908 
	C470.322571,267.548950 470.322571,241.598038 470.322571,215.491348 
	C471.348206,215.279449 471.964752,215.025375 472.572540,215.044815 
	C493.680389,215.719528 514.892395,215.342834 535.868164,217.387192 
	C562.615723,219.994064 587.517029,240.949860 590.208984,271.535492 
	C592.425659,296.720978 583.110962,316.744385 564.273621,332.520020 
	C555.399963,339.951355 545.772217,346.676331 535.803406,352.565826 
	C514.375488,365.225220 492.504944,377.135437 470.318817,389.632172 
	C470.318817,357.875671 470.318817,326.187805 470.320679,293.999908 
z"/>
</svg>